<!--<svg xmlns="http://www.w3.org/2000/svg" xmlns:xlink="http://www.w3.org/1999/xlink" style="display: none">
-->
<svg xmlns="http://www.w3.org/2000/svg">
<!--
cogwheels
-->
<symbol id="cogwheels" viewBox="0 0 64 64">

<path d="M22,31.001c-4.965,0-9,4.035-9,9s4.035,9,9,9c4.969,0,9-4.035,9-9S26.969,31.001,22,31.001z M22,48.001    c-4.415,0-8-3.585-8-8s3.585-8,8-8c4.416,0,8,3.585,8,8S26.416,48.001,22,48.001z" />

<path d="M23,24.001c0.074,0,0.201,0.104,0.216,0.177l0.606,3.035c0.014,0.069,0.026,0.152,0.044,0.268l0.105,0.672    l0.663,0.149c1.335,0.3,2.603,0.827,3.769,1.566l0.573,0.363l0.549-0.398l0.053-0.038c0.06-0.044,0.118-0.087,0.173-0.123    l2.576-1.719c0.012-0.008,0.051-0.022,0.11-0.022c0.09,0,0.152,0.033,0.169,0.05l1.414,1.414c0.053,0.053,0.068,0.217,0.028,0.277    l-1.722,2.581c-0.039,0.06-0.091,0.128-0.156,0.217l-0.405,0.551l0.366,0.578c0.74,1.165,1.268,2.433,1.567,3.768l0.149,0.662    l0.671,0.106l0.05,0.007v0.001c0.077,0.012,0.154,0.023,0.215,0.035l3.038,0.607C37.896,38.8,38,38.927,38,39.001v2    c0,0.074-0.104,0.201-0.177,0.216l-3.035,0.606c-0.064,0.013-0.142,0.024-0.219,0.036l-0.05,0.008l0,0l-0.671,0.106l-0.149,0.662    c-0.3,1.335-0.827,2.603-1.567,3.768l-0.352,0.599l0.406,0.551c0.05,0.068,0.102,0.137,0.143,0.199l1.719,2.577    c0.042,0.063,0.025,0.226-0.027,0.278l-1.415,1.415c-0.021,0.021-0.087,0.05-0.169,0.05c-0.059,0-0.097-0.015-0.107-0.022    l-2.58-1.722c-0.058-0.038-0.124-0.087-0.218-0.156l-0.551-0.403l-0.576,0.365c-1.167,0.739-2.435,1.267-3.77,1.566l-0.669,0.182    l-0.104,0.673c-0.013,0.082-0.025,0.165-0.038,0.23l-0.607,3.038c-0.015,0.073-0.142,0.178-0.216,0.178h-2    c-0.074,0-0.201-0.104-0.216-0.177l-0.608-3.045c-0.012-0.057-0.021-0.123-0.031-0.189l-0.011-0.069l-0.105-0.672l-0.663-0.149    c-1.332-0.3-2.599-0.827-3.766-1.567l-0.575-0.364l-0.55,0.4l-0.052,0.038c-0.06,0.044-0.119,0.088-0.174,0.124l-2.577,1.719    c-0.012,0.009-0.05,0.023-0.108,0.023c-0.082,0-0.148-0.029-0.17-0.051l-1.415-1.415c-0.052-0.052-0.068-0.215-0.027-0.276    l1.722-2.58c0.034-0.053,0.078-0.112,0.122-0.172l0.038-0.052l0.4-0.55l-0.364-0.575c-0.74-1.167-1.268-2.434-1.567-3.766    l-0.149-0.663L9.48,41.867l-0.069-0.011c-0.066-0.01-0.133-0.02-0.195-0.032l-3.038-0.607C6.104,41.202,6,41.075,6,41.001v-2    c0-0.074,0.104-0.201,0.177-0.216l3.045-0.608c0.057-0.012,0.123-0.021,0.189-0.031l0.069-0.011l0.672-0.105l0.149-0.663    c0.3-1.332,0.827-2.599,1.567-3.766l0.364-0.575l-0.4-0.55l-0.038-0.052c-0.044-0.06-0.088-0.119-0.124-0.174l-1.719-2.577    c-0.042-0.063-0.025-0.226,0.027-0.278l1.415-1.415c0.021-0.021,0.086-0.049,0.168-0.049c0.06,0,0.099,0.015,0.108,0.021    l2.581,1.722c0.052,0.034,0.111,0.078,0.171,0.122l0.052,0.038l0.55,0.4L15.6,29.87c1.167-0.74,2.434-1.268,3.766-1.567    l0.663-0.149l0.105-0.672l0.011-0.069c0.01-0.066,0.02-0.133,0.032-0.195l0.607-3.038c0.015-0.073,0.142-0.178,0.216-0.178H23    L23,24.001z M23,23.001h-2c-0.55,0-1.088,0.441-1.196,0.98l-0.607,3.039c-0.019,0.09-0.034,0.2-0.051,0.307    c-1.472,0.331-2.846,0.914-4.082,1.698c-0.09-0.065-0.182-0.134-0.26-0.186l-2.578-1.72c-0.192-0.128-0.427-0.189-0.663-0.189    c-0.324,0-0.65,0.117-0.876,0.343l-1.414,1.414c-0.39,0.389-0.458,1.081-0.153,1.539l1.72,2.578c0.052,0.078,0.12,0.17,0.186,0.26    c-0.784,1.236-1.367,2.61-1.698,4.082c-0.106,0.017-0.217,0.032-0.307,0.051L5.98,37.805C5.441,37.913,5,38.451,5,39.001v2    c0,0.55,0.441,1.088,0.98,1.196l3.039,0.607c0.09,0.019,0.2,0.034,0.307,0.051c0.331,1.472,0.914,2.846,1.698,4.082    c-0.065,0.09-0.134,0.182-0.186,0.26l-1.72,2.578c-0.305,0.458-0.236,1.15,0.153,1.539l1.414,1.414    c0.226,0.226,0.553,0.344,0.877,0.344c0.235,0,0.47-0.063,0.662-0.19l2.578-1.72c0.078-0.052,0.17-0.12,0.26-0.186    c1.236,0.784,2.61,1.367,4.082,1.698c0.017,0.106,0.032,0.217,0.051,0.307l0.607,3.039c0.108,0.539,0.646,0.98,1.196,0.98h2    c0.55,0,1.088-0.441,1.196-0.98l0.607-3.039c0.018-0.09,0.034-0.199,0.051-0.306c1.473-0.331,2.848-0.913,4.085-1.697    c0.088,0.064,0.179,0.132,0.257,0.184l2.578,1.72c0.192,0.128,0.427,0.19,0.662,0.19c0.325,0,0.651-0.118,0.877-0.344l1.414-1.414    c0.39-0.389,0.458-1.081,0.153-1.539l-1.72-2.578c-0.052-0.078-0.119-0.169-0.185-0.258c0.785-1.237,1.367-2.612,1.698-4.084    c0.105-0.017,0.216-0.033,0.306-0.051l3.039-0.607c0.539-0.108,0.98-0.646,0.98-1.196v-2c0-0.55-0.441-1.088-0.98-1.196    l-3.039-0.607c-0.09-0.018-0.2-0.034-0.306-0.051c-0.331-1.472-0.913-2.847-1.698-4.084c0.065-0.089,0.133-0.18,0.185-0.258    l1.72-2.578c0.304-0.458,0.236-1.149-0.153-1.539l-1.414-1.414c-0.225-0.226-0.552-0.343-0.876-0.343    c-0.236,0-0.471,0.062-0.663,0.189l-2.578,1.72c-0.078,0.052-0.169,0.119-0.258,0.184c-1.236-0.784-2.611-1.366-4.084-1.697    c-0.017-0.106-0.033-0.216-0.051-0.306l-0.607-3.039C24.088,23.442,23.55,23.001,23,23.001L23,23.001z" />

<path d="M22,35.946c-2.207,0-4,1.816-4,4.055s1.793,4.055,4,4.055s4-1.816,4-4.055S24.207,35.946,22,35.946z     M22,43.001c-1.655,0-3-1.345-3-3s1.345-3,3-3s3,1.345,3,3S23.655,43.001,22,43.001z" />

<path d="M57.36,16.359l-3.099-0.017c-0.121-0.001-0.264,0.004-0.409,0.012c-0.317-0.605-0.69-1.173-1.116-1.691    c0.063-0.13,0.122-0.258,0.169-0.369l1.194-2.86c0.211-0.507,0.013-1.174-0.443-1.48l-1.658-1.119    c-0.263-0.177-0.607-0.23-0.925-0.169c-0.232,0.045-0.45,0.151-0.615,0.313l-2.203,2.18c-0.085,0.084-0.182,0.188-0.279,0.295    c-0.641-0.201-1.306-0.333-1.985-0.401c-0.05-0.138-0.098-0.271-0.145-0.383L44.67,7.801c-0.209-0.508-0.822-0.838-1.361-0.732    l-1.964,0.381c-0.539,0.105-0.983,0.642-0.986,1.191l-0.017,3.099c0,0.121,0.005,0.264,0.012,0.409    c-0.605,0.317-1.173,0.689-1.691,1.116c-0.131-0.063-0.259-0.122-0.37-0.168l-2.859-1.195c-0.213-0.089-0.454-0.105-0.687-0.06    c-0.318,0.062-0.617,0.238-0.794,0.503l-1.119,1.658c-0.308,0.456-0.243,1.148,0.144,1.54l2.18,2.203    c0.084,0.085,0.188,0.182,0.295,0.278c-0.201,0.642-0.333,1.307-0.401,1.986c-0.139,0.05-0.271,0.098-0.384,0.145l-2.866,1.176    c-0.508,0.209-0.839,0.822-0.734,1.361l0.382,1.963c0.105,0.54,0.641,0.984,1.191,0.987l3.099,0.017    c0.121,0,0.264-0.004,0.409-0.012c0.317,0.605,0.69,1.172,1.116,1.691c-0.063,0.131-0.123,0.26-0.17,0.37L35.9,30.568    c-0.211,0.507-0.013,1.173,0.443,1.48l1.658,1.119c0.264,0.177,0.606,0.23,0.925,0.169c0.232-0.045,0.45-0.151,0.615-0.313    l2.203-2.18c0.085-0.084,0.182-0.188,0.278-0.296c0.642,0.201,1.307,0.334,1.986,0.402c0.05,0.138,0.098,0.271,0.145,0.383    L45.33,34.2c0.209,0.509,0.822,0.839,1.361,0.733l1.964-0.381c0.539-0.105,0.983-0.642,0.986-1.191l0.016-3.099    c0.001-0.121-0.004-0.264-0.011-0.409c0.605-0.317,1.173-0.69,1.691-1.116c0.13,0.063,0.258,0.123,0.369,0.169l2.86,1.194    c0.213,0.089,0.454,0.105,0.687,0.06c0.318-0.062,0.617-0.239,0.794-0.503l1.119-1.658c0.307-0.456,0.242-1.148-0.145-1.54    l-2.18-2.203c-0.084-0.085-0.188-0.182-0.295-0.278c0.2-0.642,0.333-1.307,0.401-1.987c0.138-0.048,0.271-0.096,0.383-0.143    l2.868-1.177c0.508-0.209,0.838-0.822,0.732-1.361l-0.381-1.964C58.446,16.807,57.911,16.362,57.36,16.359z M57.952,19.5    c0.015,0.073-0.064,0.218-0.133,0.246l-2.865,1.177c-0.097,0.039-0.213,0.082-0.332,0.123l-0.604,0.209l-0.063,0.637    c-0.061,0.616-0.183,1.219-0.361,1.786l-0.19,0.61l0.474,0.43c0.093,0.084,0.183,0.168,0.256,0.241l2.179,2.203    c0.053,0.053,0.068,0.216,0.026,0.277l-1.117,1.658c-0.017,0.024-0.076,0.065-0.156,0.082c-0.06,0.011-0.099,0.004-0.111-0.002    l-2.86-1.194c-0.095-0.041-0.206-0.093-0.319-0.147l-0.575-0.277l-0.494,0.405c-0.46,0.378-0.973,0.717-1.521,1.004l-0.562,0.295    l0.027,0.636c0.007,0.129,0.011,0.254,0.011,0.358l-0.017,3.098c0,0.076-0.105,0.202-0.178,0.216l-1.963,0.383    c-0.073,0.014-0.218-0.065-0.246-0.133l-1.176-2.865c-0.04-0.098-0.083-0.217-0.125-0.339l-0.213-0.599l-0.632-0.063    c-0.616-0.061-1.219-0.183-1.786-0.361l-0.61-0.19l-0.43,0.474c-0.084,0.093-0.168,0.183-0.241,0.256l-2.203,2.179    c-0.01,0.011-0.044,0.032-0.103,0.043c-0.088,0.018-0.155-0.003-0.175-0.017l-1.658-1.117c-0.062-0.043-0.109-0.199-0.08-0.268    l1.193-2.858c0.042-0.097,0.095-0.209,0.149-0.324l0.274-0.575l-0.403-0.491c-0.378-0.46-0.717-0.973-1.004-1.521l-0.298-0.566    l-0.64,0.033c-0.126,0.006-0.249,0.01-0.352,0.011l-3.099-0.018c-0.075,0-0.201-0.105-0.215-0.178l-0.382-1.963    c-0.014-0.073,0.065-0.218,0.133-0.246l2.863-1.175c0.1-0.04,0.217-0.084,0.34-0.126l0.6-0.212l0.063-0.633    c0.061-0.616,0.183-1.219,0.361-1.786l0.19-0.61l-0.474-0.43c-0.093-0.084-0.183-0.168-0.256-0.241l-2.18-2.202    c-0.052-0.053-0.067-0.217-0.025-0.278l1.117-1.658c0.017-0.024,0.075-0.065,0.156-0.082c0.06-0.011,0.099-0.004,0.111,0.002    l2.858,1.194c0.097,0.041,0.209,0.094,0.324,0.147l0.575,0.275l0.491-0.403c0.46-0.378,0.972-0.717,1.521-1.004l0.562-0.296    l-0.027-0.635c-0.007-0.129-0.011-0.255-0.011-0.358l0.017-3.099c0-0.075,0.105-0.201,0.178-0.215l1.963-0.383    c0.073-0.015,0.218,0.064,0.246,0.132l1.176,2.866c0.04,0.098,0.083,0.217,0.125,0.339l0.213,0.599l0.632,0.063    c0.616,0.061,1.219,0.183,1.786,0.361l0.61,0.19l0.43-0.474c0.084-0.093,0.168-0.183,0.241-0.256l2.203-2.179    c0.01-0.011,0.044-0.032,0.103-0.043c0.088-0.018,0.156,0.002,0.175,0.017l1.658,1.117c0.062,0.042,0.109,0.199,0.08,0.268    l-1.194,2.86c-0.041,0.095-0.093,0.206-0.147,0.319l-0.277,0.575l0.405,0.494c0.378,0.46,0.717,0.973,1.004,1.521l0.298,0.566    l0.64-0.033c0.125-0.006,0.249-0.01,0.352-0.011l3.099,0.018c0.074,0,0.201,0.105,0.215,0.178L57.952,19.5z" />

<path d="M44.236,17.075c-2.17,0.421-3.585,2.521-3.162,4.689c0.421,2.168,2.521,3.585,4.689,3.162    c2.168-0.421,3.585-2.521,3.162-4.689C48.505,18.069,46.404,16.652,44.236,17.075z M45.573,23.946    c-1.627,0.315-3.201-0.746-3.519-2.372c-0.315-1.626,0.745-3.201,2.372-3.519c1.626-0.315,3.201,0.746,3.519,2.372    C48.261,22.054,47.199,23.629,45.573,23.946z" />

<path d="M40.05,16.051c-2.732,2.733-2.732,7.167,0,9.9c2.733,2.732,7.167,2.732,9.899,0    c2.733-2.733,2.733-7.167,0-9.899C47.217,13.318,42.783,13.318,40.05,16.051z M49.242,25.243c-2.342,2.343-6.143,2.343-8.484,0    c-2.343-2.342-2.343-6.143,0-8.484c2.342-2.343,6.143-2.343,8.484,0C51.585,19.101,51.585,22.901,49.242,25.243z" />

<path d="M57.734,49.717c0.548-0.053,1.063-0.541,1.145-1.085l0-0.001c0.076-0.508-0.223-1.079-0.675-1.325    c-0.033-0.018-0.065-0.033-0.1-0.047l-1.962-0.814c-0.05-0.021-0.116-0.042-0.172-0.063c-0.07-0.886-0.288-1.753-0.641-2.565    c0.041-0.047,0.089-0.098,0.125-0.141l1.349-1.636c0.35-0.426,0.369-1.136,0.043-1.578h-0.001    c-0.102-0.138-0.239-0.252-0.394-0.337c-0.341-0.186-0.774-0.23-1.124-0.086l-1.963,0.812c-0.049,0.021-0.11,0.051-0.163,0.075    c-0.418-0.357-0.879-0.68-1.382-0.952c-0.291-0.158-0.589-0.291-0.89-0.41c-0.003-0.061-0.004-0.13-0.01-0.184l-0.204-2.113    c-0.04-0.414-0.329-0.81-0.703-1.014c-0.12-0.065-0.249-0.11-0.382-0.13h-0.001c-0.543-0.082-1.161,0.267-1.373,0.774    l-0.814,1.962c-0.021,0.05-0.042,0.115-0.063,0.171c-0.886,0.07-1.752,0.288-2.565,0.641c-0.047-0.041-0.097-0.089-0.139-0.124    l-1.639-1.35c-0.054-0.045-0.113-0.084-0.176-0.117c-0.425-0.231-1.014-0.21-1.4,0.074l0,0.002    c-0.443,0.326-0.633,1.009-0.423,1.518l0.811,1.963c0.021,0.049,0.05,0.108,0.075,0.162c-0.359,0.418-0.68,0.879-0.954,1.382    c-0.158,0.291-0.291,0.59-0.409,0.89c-0.06,0.004-0.129,0.005-0.184,0.01l-2.113,0.205c-0.547,0.052-1.062,0.54-1.144,1.084h0.001    c-0.077,0.508,0.221,1.08,0.674,1.326c0.033,0.018,0.065,0.033,0.1,0.048l1.962,0.813c0.05,0.021,0.114,0.041,0.17,0.063    c0.069,0.887,0.287,1.754,0.64,2.568c-0.04,0.045-0.088,0.095-0.124,0.137l-1.35,1.639c-0.35,0.425-0.368,1.134-0.042,1.576h0.001    c0.102,0.139,0.239,0.252,0.394,0.337c0.342,0.186,0.775,0.23,1.125,0.086l1.962-0.811c0.049-0.02,0.108-0.05,0.161-0.074    c0.418,0.358,0.879,0.68,1.382,0.953c0.292,0.159,0.589,0.29,0.89,0.409c0.004,0.061,0.005,0.13,0.01,0.184l0.205,2.112    c0.04,0.414,0.329,0.81,0.703,1.014c0.12,0.065,0.249,0.11,0.381,0.13l0.001,0.001c0.544,0.081,1.161-0.267,1.372-0.774    l0.814-1.962c0.021-0.05,0.042-0.114,0.063-0.171c0.887-0.069,1.754-0.288,2.568-0.641c0.046,0.04,0.096,0.089,0.138,0.124    l1.637,1.349c0.054,0.045,0.113,0.084,0.175,0.118c0.426,0.231,1.016,0.209,1.4-0.076h0.001c0.442-0.327,0.632-1.01,0.423-1.518    l-0.812-1.963c-0.021-0.049-0.051-0.108-0.075-0.162c0.358-0.419,0.679-0.879,0.953-1.382c0.159-0.291,0.291-0.59,0.41-0.891    c0.06-0.003,0.13-0.005,0.185-0.01L57.734,49.717z M55.528,48.925l-0.068,0.004l-0.076,0.003l-0.64,0.035l-0.236,0.596    c-0.121,0.306-0.234,0.554-0.358,0.781c-0.231,0.426-0.512,0.834-0.834,1.211l-0.41,0.479l0.257,0.576l0.043,0.091l0.021,0.046    l0.811,1.962c0.034,0.082-0.014,0.263-0.083,0.325l-0.011,0.008c-0.055,0.041-0.222,0.058-0.342-0.008l-0.002-0.001l-1.633-1.346    l-0.047-0.042l-0.07-0.064l-0.477-0.421l-0.583,0.253c-0.719,0.312-1.475,0.501-2.249,0.563l-0.641,0.051l-0.22,0.604    l-0.021,0.059l-0.025,0.071l-0.814,1.96c-0.035,0.085-0.209,0.184-0.302,0.17c-0.003-0.001-0.021-0.004-0.051-0.021    c-0.105-0.057-0.18-0.175-0.185-0.231l-0.205-2.109l-0.003-0.056l-0.005-0.102l-0.043-0.63l-0.587-0.232    c-0.306-0.121-0.553-0.234-0.781-0.358c-0.427-0.231-0.833-0.513-1.209-0.834l-0.493-0.422l-0.586,0.278l-0.044,0.021    l-0.003,0.001l-0.067,0.031l-1.961,0.811c-0.046,0.02-0.164,0.016-0.266-0.04c-0.047-0.025-0.064-0.049-0.066-0.051l-0.011-0.015    c-0.045-0.083-0.038-0.266,0.018-0.333l1.346-1.633l0.044-0.049l0.059-0.064l0.425-0.478l-0.254-0.586    c-0.313-0.719-0.501-1.475-0.561-2.248l-0.05-0.628l-0.588-0.227l-0.103-0.038l-0.044-0.015l-1.967-0.817    c-0.094-0.051-0.176-0.219-0.164-0.298c0.013-0.09,0.161-0.23,0.251-0.239l2.11-0.203l0.056-0.003l0.102-0.005l0.63-0.043    l0.232-0.588c0.119-0.3,0.236-0.555,0.358-0.779c0.232-0.427,0.513-0.833,0.834-1.209l0.416-0.485l-0.266-0.581l-0.032-0.07    l-0.026-0.058l-0.812-1.963c-0.035-0.083,0.019-0.277,0.091-0.331l0.013-0.009c0.065-0.035,0.218-0.046,0.332,0.016l0.003,0.002    l1.633,1.345l0.045,0.041l0.074,0.067l0.477,0.418l0.582-0.252c0.718-0.313,1.474-0.501,2.246-0.562l0.628-0.049l0.227-0.589    l0.038-0.102l0.016-0.046l0.814-1.96c0.034-0.083,0.211-0.184,0.299-0.17l0.01,0.001c0.011,0.003,0.026,0.009,0.044,0.019    c0.105,0.057,0.18,0.175,0.186,0.23l0.203,2.11l0.003,0.061l0.005,0.09l0.038,0.636l0.592,0.235    c0.306,0.121,0.553,0.234,0.78,0.357c0.426,0.232,0.833,0.512,1.209,0.834l0.486,0.415l0.58-0.267l0.067-0.031l0.062-0.027    l1.961-0.811c0.045-0.02,0.163-0.017,0.265,0.039c0.037,0.021,0.06,0.041,0.068,0.053c0.055,0.074,0.049,0.275-0.01,0.347    l-1.347,1.635l-0.041,0.046l-0.066,0.072l-0.417,0.477l0.251,0.581c0.313,0.718,0.5,1.474,0.561,2.246l0.05,0.628l0.588,0.227    l0.1,0.037l0.048,0.018l1.967,0.816c0.093,0.051,0.175,0.219,0.163,0.3c-0.013,0.091-0.16,0.229-0.251,0.237L55.528,48.925z" />

<path d="M49.671,43.926c-1.699-0.924-3.823-0.295-4.747,1.403c-0.924,1.699-0.295,3.823,1.403,4.747    c1.699,0.923,3.823,0.295,4.747-1.403C51.998,46.974,51.37,44.85,49.671,43.926z M46.806,49.197    c-1.213-0.659-1.662-2.177-1.002-3.391c0.66-1.213,2.177-1.662,3.39-1.002c1.213,0.659,1.662,2.177,1.002,3.39    C49.537,49.408,48.019,49.856,46.806,49.197z" />

</symbol>

<!--
learn
-->
<symbol id="learn" viewBox="0 0 64 64">
<path d="M53,11c0.55,0,1-0.45,1-1V9c0-0.55-0.45-1-1-1H32.5V6c0-0.276-0.224-0.5-0.5-0.5S31.5,5.724,31.5,6v2H11     c-0.55,0-1,0.45-1,1v1c0,0.55,0.45,1,1,1h1v28h-1c-0.55,0-1,0.45-1,1v1c0,0.55,0.45,1,1,1h20.5v2.793l-6.491,6.49     C24.712,51.107,24.37,51,24,51c-1.103,0-2,0.897-2,2s0.897,2,2,2s2-0.897,2-2c0-0.37-0.108-0.712-0.283-1.01l5.783-5.783v8.864     c-0.86,0.224-1.5,1-1.5,1.929c0,1.103,0.897,2,2,2s2-0.897,2-2c0-0.929-0.64-1.705-1.5-1.929v-8.864l5.783,5.784     C38.107,52.288,38,52.631,38,53c0,1.103,0.897,2,2,2s2-0.897,2-2s-0.897-2-2-2c-0.37,0-0.712,0.107-1.01,0.283l-6.49-6.49V42H53     c0.55,0,1-0.45,1-1v-1c0-0.55-0.45-1-1-1h-1V11H53z M24,54c-0.552,0-1-0.447-1-1s0.448-1,1-1s1,0.447,1,1S24.552,54,24,54z      M41,53c0,0.553-0.448,1-1,1s-1-0.447-1-1s0.448-1,1-1S41,52.447,41,53z M33,57c0,0.553-0.448,1-1,1s-1-0.447-1-1s0.448-1,1-1     S33,56.447,33,57z M11,10V9h42v1h-1H12H11z M53,40v1H11v-1h1h40H53z M51,39H13V11h38V39z" />

<path d="M19.75,31c0.966,0,2.75,0,2.75,0c0.98,0,2.5-1.946,2.5-1.946S25.167,31,26,31h1c-1,0-1-0.946-1-0.946V23     c0-1.65-1.35-3-3-3h-2c-1.65,0-3,1.35-3,3h1c0-0.553,0.625-2,2-2h2c1.833,0,2,1.708,2,3h-1h-2.5c-1.933,0-3.5,1.567-3.5,3.5     c0,0.638,0,1.235,0,1.75C18,30.217,18.784,31,19.75,31z M19,27.5c0-1.379,1.122-2.5,2.5-2.5H24h1v2.433l-0.788,1.005     C23.626,29.186,22.781,29.945,22.5,30h-2.75C19.336,30,19,29.664,19,29.25V27.5z" />

<path d="M39,30.222C39.532,30.7,40.228,31,41,31h2c1.656,0,3-1.343,3-3v-5c0-1.657-1.344-3-3-3h-2     c-0.772,0-1.468,0.3-2,0.778V16h-1v15h1V30.222z M39,22.124l0.669-0.603C39.934,21.283,40.379,21,41,21h2c1.104,0,2,0.897,2,2v5     c0,1.103-0.896,2-2,2h-2c-0.621,0-1.066-0.283-1.331-0.521L39,28.876V22.124z" />

<polygon points="31.5,29.5 32.5,29.5 32.5,26 36,26 36,25 32.5,25 32.5,21.5 31.5,21.5 31.5,25 28,25 28,26      31.5,26    "/>

</symbol>

<!--
communication
-->
<symbol id="communication" viewBox="0 0 64 64">
<path d="M19,24h-6c-0.276,0-0.5-0.224-0.5-0.5S12.724,23,13,23h6c0.276,0,0.5,0.224,0.5,0.5S19.276,24,19,24z" />

<path d="M16,53c-1.105,0-2,0.895-2,2s0.895,2.001,2,2.001s2-0.896,2-2.001S17.105,53,16,53z M16.707,55.708     c-0.189,0.188-0.439,0.293-0.707,0.293c-0.552,0-1-0.448-1-1.001c0-0.551,0.448-1,1-1c0.551,0,1,0.449,1,1.001     C17,55.268,16.896,55.52,16.707,55.708z" />

<path d="M26,36.737V57c0,0.551-0.449,1-1,1H7c-0.551,0-1-0.449-1-1V23c0-0.551,0.449-1,1-1h18     c0.551,0,1,0.449,1,1v10.521l1-0.388V23c0-1.1-0.9-2-2-2H7c-1.1,0-2,0.9-2,2v34c0,1.1,0.9,2,2,2h18c1.1,0,2-0.9,2-2V36.351     L26,36.737z" />

<polygon points="24,37.512 24,50 8,50 8,27 24,27 24,34.295 25,33.908 25,26 7,26 7,51 25,51 25,37.124    "/>

<path d="M10.747,10H7c-1.1,0-2,0.9-2,2v8.78c0.289-0.261,0.627-0.463,1-0.597V12c0-0.551,0.449-1,1-1h3.564      C10.604,10.659,10.667,10.327,10.747,10z" />

<path d="M57,10H27.253c0.079,0.327,0.143,0.659,0.183,1H57c0.551,0,1,0.449,1,1v32H28v1h30v2      c0,0.551-0.449,1-1,1H28v1h9.246l1.428,5H28v1h15c0.551,0,1,0.449,1,1H28v1h17v-1c0-1.104-0.896-2-2-2h-3.285l-1.43-5H57      c1.1,0,2-0.9,2-2V12C59,10.9,58.1,10,57,10z" />

<path d="M10.5,12H7v8h1v-7h2.564C10.525,12.672,10.5,12.339,10.5,12z" />

<path d="M27.5,12c0,0.339-0.025,0.672-0.064,1H56v28H28v1h29V12H27.5z" />

<path d="M19,19.5c-4.136,0-7.5-3.364-7.5-7.5s3.364-7.5,7.5-7.5s7.5,3.364,7.5,7.5S23.136,19.5,19,19.5z M19,5.5     c-3.584,0-6.5,2.916-6.5,6.5s2.916,6.5,6.5,6.5s6.5-2.916,6.5-6.5S22.584,5.5,19,5.5z" />

<path d="M16,44.5c-3.033,0-5.5-2.468-5.5-5.5s2.467-5.5,5.5-5.5s5.5,2.468,5.5,5.5S19.033,44.5,16,44.5z M16,34.5    c-2.481,0-4.5,2.019-4.5,4.5s2.019,4.5,4.5,4.5s4.5-2.019,4.5-4.5S18.481,34.5,16,34.5z" />

<path d="M41.246,28.691l-20.807,8.055c0.151,0.295,0.271,0.605,0.361,0.932l20.809-8.055      C41.465,29.324,41.341,29.015,41.246,28.691z" />

<path d="M47,33.5c-3.584,0-6.5-2.916-6.5-6.5s2.916-6.5,6.5-6.5s6.5,2.916,6.5,6.5S50.584,33.5,47,33.5z       M47,21.5c-3.033,0-5.5,2.468-5.5,5.5s2.467,5.5,5.5,5.5s5.5-2.468,5.5-5.5S50.033,21.5,47,21.5z" />

<path d="M25.387,14.854c-0.137,0.307-0.296,0.6-0.474,0.881l16.581,8.883c0.134-0.309,0.293-0.602,0.475-0.881     L25.387,14.854z" />
</symbol>

<!--
symbol
-->
<symbol id="embedded" viewBox="0 0 64 64">
<path d="M46,31v-1h9.148c0.297,0.732,1.013,1.25,1.852,1.25c1.104,0,2-0.896,2-2s-0.896-2-2-2   c-1.019,0-1.851,0.765-1.975,1.75H46v-1h-2v-2h2v-1h2.651l3-2h3.497c0.297,0.732,1.013,1.25,1.852,1.25c1.104,0,2-0.896,2-2   s-0.896-2-2-2c-1.019,0-1.851,0.765-1.975,1.75h-3.677l-3,2H46v-1h-2v-3h-3v-2h-1v-1.833l3-4V9.429   c0.861-0.223,1.5-0.999,1.5-1.929c0-1.104-0.896-2-2-2s-2,0.896-2,2c0,0.93,0.639,1.706,1.5,1.929v2.404l-3,4V18h-1v2h-2v-2h-1   v-3.845l2-2.917V9.429c0.861-0.223,1.5-0.999,1.5-1.929c0-1.104-0.896-2-2-2s-2,0.896-2,2c0,0.93,0.639,1.706,1.5,1.929v1.5   l-2,2.917V18h-1v2h-2v-2h-1v-6.571c0.861-0.223,1.5-0.999,1.5-1.929c0-1.104-0.896-2-2-2s-2,0.896-2,2   c0,0.93,0.639,1.706,1.5,1.929V18h-1v2h-2v-2h-1v-3.207l-2-2V9.429c0.861-0.223,1.5-0.999,1.5-1.929c0-1.104-0.896-2-2-2   s-2,0.896-2,2c0,0.93,0.639,1.706,1.5,1.929v3.778l2,2V18h-1v2h-3v3h-2v1h-1.599l-3-2H9.725c-0.124-0.985-0.956-1.75-1.975-1.75   c-1.104,0-2,0.896-2,2s0.896,2,2,2c0.838,0,1.554-0.518,1.852-1.25h3.497l3,2H18v1h2v2h-2v1H8.725   c-0.124-0.985-0.956-1.75-1.975-1.75c-1.104,0-2,0.896-2,2s0.896,2,2,2c0.838,0,1.554-0.518,1.852-1.25H18v1h2v2h-2v1h-5.275   c-0.124-0.985-0.956-1.75-1.975-1.75c-1.104,0-2,0.896-2,2s0.896,2,2,2c0.838,0,1.554-0.518,1.852-1.25H18v1h2v2h-2v1h-2.901l-3,2   H8.725c-0.124-0.985-0.956-1.75-1.975-1.75c-1.104,0-2,0.896-2,2s0.896,2,2,2c0.838,0,1.554-0.518,1.852-1.25h3.8l3-2H18v1h2v3h3v2   h1v2.333l-3,4v2.737c-0.861,0.223-1.5,0.999-1.5,1.929c0,1.104,0.896,2,2,2s2-0.896,2-2c0-0.93-0.639-1.706-1.5-1.929v-2.404l3-4   V46h1v-2h2v2h1v4.345l-2,2.917v1.809c-0.861,0.223-1.5,0.999-1.5,1.929c0,1.104,0.896,2,2,2s2-0.896,2-2   c0-0.93-0.639-1.706-1.5-1.929v-1.5l2-2.917V46h1v-2h2v2h1v7.071c-0.861,0.223-1.5,0.999-1.5,1.929c0,1.104,0.896,2,2,2   s2-0.896,2-2c0-0.93-0.639-1.706-1.5-1.929V46h1v-2h2v2h1v3.707l2,2v3.364c-0.861,0.223-1.5,0.999-1.5,1.929c0,1.104,0.896,2,2,2   s2-0.896,2-2c0-0.93-0.639-1.706-1.5-1.929v-3.778l-2-2V46h1v-2h3v-3h2v-1h3.293l2,2h3.855c0.297,0.732,1.013,1.25,1.852,1.25   c1.104,0,2-0.896,2-2s-0.896-2-2-2c-1.019,0-1.851,0.765-1.975,1.75h-3.318l-2-2H46v-1h-2v-2h2v-1h5.148   c0.297,0.732,1.013,1.25,1.852,1.25c1.104,0,2-0.896,2-2s-0.896-2-2-2c-1.019,0-1.851,0.765-1.975,1.75H46v-1h-2v-2H46z M57,28.25   c0.552,0,1,0.448,1,1s-0.448,1-1,1s-1-0.448-1-1S56.448,28.25,57,28.25z M57,21.25c0.552,0,1,0.448,1,1s-0.448,1-1,1s-1-0.448-1-1   S56.448,21.25,57,21.25z M44,24h1v1h-1V24z M41.5,7.5c0-0.552,0.448-1,1-1s1,0.448,1,1s-0.448,1-1,1S41.5,8.052,41.5,7.5z    M35.5,7.5c0-0.552,0.448-1,1-1s1,0.448,1,1s-0.448,1-1,1S35.5,8.052,35.5,7.5z M28.5,9.5c0-0.552,0.448-1,1-1s1,0.448,1,1   s-0.448,1-1,1S28.5,10.052,28.5,9.5z M21.5,7.5c0-0.552,0.448-1,1-1s1,0.448,1,1s-0.448,1-1,1S21.5,8.052,21.5,7.5z M7.75,23.25   c-0.552,0-1-0.448-1-1s0.448-1,1-1s1,0.448,1,1S8.302,23.25,7.75,23.25z M6.75,30.25c-0.552,0-1-0.448-1-1s0.448-1,1-1s1,0.448,1,1   S7.302,30.25,6.75,30.25z M10.75,35.25c-0.552,0-1-0.448-1-1s0.448-1,1-1s1,0.448,1,1S11.302,35.25,10.75,35.25z M6.75,42.25   c-0.552,0-1-0.448-1-1s0.448-1,1-1s1,0.448,1,1S7.302,42.25,6.75,42.25z M20,40h-1v-1h1V40z M20,35h-1v-1h1V35z M20,30h-1v-1h1V30z    M20,25h-1v-1h1V25z M22.5,57c0,0.552-0.448,1-1,1s-1-0.448-1-1s0.448-1,1-1S22.5,56.448,22.5,57z M28.5,57c0,0.552-0.448,1-1,1   s-1-0.448-1-1s0.448-1,1-1S28.5,56.448,28.5,57z M35.5,55c0,0.552-0.448,1-1,1s-1-0.448-1-1s0.448-1,1-1S35.5,54.448,35.5,55z    M42.5,57c0,0.552-0.448,1-1,1s-1-0.448-1-1s0.448-1,1-1S42.5,56.448,42.5,57z M39,19h1v1h-1V19z M34,19h1v1h-1V19z M29,19h1v1h-1   V19z M24,19h1v1h-1V19z M25,45h-1v-1h1V45z M30,45h-1v-1h1V45z M35,45h-1v-1h1V45z M40,45h-1v-1h1V45z M43,43H21V21h22V43z    M57,40.25c0.552,0,1,0.448,1,1s-0.448,1-1,1s-1-0.448-1-1S56.448,40.25,57,40.25z M45,39v1h-1v-1H45z M53,33.25   c0.552,0,1,0.448,1,1s-0.448,1-1,1s-1-0.448-1-1S52.448,33.25,53,33.25z M45,34v1h-1v-1H45z M44,29h1v1h-1V29z" />

<path d="M41,23H23v18h18V23z M40,40H24V24h16V40z" />

<rect height="1" transform="matrix(-0.7071 0.7071 -0.7071 -0.7071 78.7548 28.3787)" width="9.899" x="28.55" y="30"/>

<rect height="1" transform="matrix(-0.7071 0.7071 -0.7071 -0.7071 72.1335 34.1213)" width="8.485" x="24.757" y="31.5"/>

</symbol>

<!--
coding
-->
<symbol id="coding" viewBox="0 0 64 64">
<path d="M58,50H38v1H26v-1H6c-0.553,0-1,0.447-1,1s0.438,1.097,0.977,1.217l6.07,1.35   C13.125,53.806,14.895,54,16,54h32c1.104,0,2.873-0.194,3.951-0.434l6.072-1.35C58.563,52.097,59,51.553,59,51S58.553,50,58,50z    M57.807,51.24l-6.072,1.35C50.734,52.813,49.023,53,48,53H16c-1.023,0-2.734-0.188-3.736-0.41l-6.07-1.35   C6.111,51.223,6,51.083,6,51h19v1h1h12h1v-1h19C58,51.083,57.887,51.223,57.807,51.24z" />

<path d="M53,16H11c-0.553,0-1,0.447-1,1v13v17h44V30V17C54,16.447,53.553,16,53,16z M53,46H11V30V17h41.18H53v13V46   z" />

<path d="M56,17c0-1.65-1.35-3-3-3H11c-1.65,0-3,1.35-3,3v32h48V17z M55,48H9V17c0-1.104,0.896-2,2-2h42   c1.104,0,2,0.896,2,2V48z" />

<rect height="1" width="2" x="14" y="43"/>

<rect height="1" width="2" x="14" y="40"/>

<rect height="1" width="2" x="14" y="37"/>

<rect height="1" width="2" x="14" y="34"/>

<rect height="1" width="2" x="14" y="31"/>

<rect height="1" width="2" x="14" y="28"/>

<rect height="1" width="2" x="14" y="25"/>
<rect height="1" width="2" x="14" y="22"/>

<rect height="1" width="2" x="14" y="19"/>

<rect height="1" width="8" x="18" y="37"/>
<rect height="1" width="2" x="27" y="37"/>
<rect height="1" width="10" x="28" y="43"/>
<rect height="1" width="2" x="25" y="43"/>
<rect height="1" width="6" x="18" y="43"/>
<rect height="1" width="8" x="22" y="40"/>
<rect height="1" width="8" x="39" y="37"/>
<rect height="1" width="8" x="30" y="37"/>
<rect height="1" width="8" x="36" y="31"/>
<rect height="1" width="2" x="33" y="31"/>
<rect height="1" width="2" x="18" y="28"/>
<rect height="1" width="4" x="24" y="31"/>
<rect height="1" width="4" x="18" y="25"/>
<rect height="1" width="4" x="23" y="25"/>
<rect height="1" width="13" x="28" y="25"/>
<rect height="1" width="4" x="32" y="22"/>
<rect height="1" width="4" x="27" y="22"/>
<rect height="1" width="2" x="37" y="22"/>
<rect height="1" width="5" x="37" y="34"/>
<rect height="1" width="4" x="32" y="34"/>
<rect height="1" width="11" x="18" y="34"/>
<rect height="1" width="8" x="18" y="22"/>
<rect height="1" width="2" x="18" y="19"/>
</symbol>

<!--
tux
-->
<symbol id="tux" viewBox="0 0 1792 1792">
<path d="M791 411q-11 1-15.5 10.5t-8.5 9.5q-5 1-5-5 0-12 19-15h10zm87 14q-4 1-11.5-6.5t-17.5-4.5q24-11 32 2 3 6-3 9zm-351 427q-4-1-6 3t-4.5 12.5-5.5 13.5-10 13q-10 11-1 12 4 1 12.5-7t12.5-18q1-3 2-7t2-6 1.5-4.5.5-4v-3l-1-2.5-3-2zm855 359q0-18-55-42 4-15 7.5-27.5t5-26 3-21.5.5-22.5-1-19.5-3.5-22-4-20.5-5-25-5.5-26.5q-10-48-47-103t-72-75q24 20 57 83 87 162 54 278-11 40-50 42-31 4-38.5-18.5t-8-83.5-11.5-107q-9-39-19.5-69t-19.5-45.5-15.5-24.5-13-15-7.5-7q-14-62-31-103t-29.5-56-23.5-33-15-40q-4-21 6-53.5t4.5-49.5-44.5-25q-15-3-44.5-18t-35.5-16q-8-1-11-26t8-51 36-27q37-3 51 30t4 58q-11 19-2 26.5t30 .5q13-4 13-36v-37q-5-30-13.5-50t-21-30.5-23.5-15-27-7.5q-107 8-89 134 0 15-1 15-9-9-29.5-10.5t-33 .5-15.5-5q1-57-16-90t-45-34q-27-1-41.5 27.5t-16.5 59.5q-1 15 3.5 37t13 37.5 15.5 13.5q10-3 16-14 4-9-7-8-7 0-15.5-14.5t-9.5-33.5q-1-22 9-37t34-14q17 0 27 21t9.5 39-1.5 22q-22 15-31 29-8 12-27.5 23.5t-20.5 12.5q-13 14-15.5 27t7.5 18q14 8 25 19.5t16 19 18.5 13 35.5 6.5q47 2 102-15 2-1 23-7t34.5-10.5 29.5-13 21-17.5q9-14 20-8 5 3 6.5 8.5t-3 12-16.5 9.5q-20 6-56.5 21.5t-45.5 19.5q-44 19-70 23-25 5-79-2-10-2-9 2t17 19q25 23 67 22 17-1 36-7t36-14 33.5-17.5 30-17 24.5-12 17.5-2.5 8.5 11q0 2-1 4.5t-4 5-6 4.5-8.5 5-9 4.5-10 5-9.5 4.5q-28 14-67.5 44t-66.5 43-49 1q-21-11-63-73-22-31-25-22-1 3-1 10 0 25-15 56.5t-29.5 55.5-21 58 11.5 63q-23 6-62.5 90t-47.5 141q-2 18-1.5 69t-5.5 59q-8 24-29 3-32-31-36-94-2-28 4-56 4-19-1-18-2 1-4 5-36 65 10 166 5 12 25 28t24 20q20 23 104 90.5t93 76.5q16 15 17.5 38t-14 43-45.5 23q8 15 29 44.5t28 54 7 70.5q46-24 7-92-4-8-10.5-16t-9.5-12-2-6q3-5 13-9.5t20 2.5q46 52 166 36 133-15 177-87 23-38 34-30 12 6 10 52-1 25-23 92-9 23-6 37.5t24 15.5q3-19 14.5-77t13.5-90q2-21-6.5-73.5t-7.5-97 23-70.5q15-18 51-18 1-37 34.5-53t72.5-10.5 60 22.5zm-628-827q3-17-2.5-30t-11.5-15q-9-2-9 7 2 5 5 6 10 0 7 15-3 20 8 20 3 0 3-3zm419 197q-2-8-6.5-11.5t-13-5-14.5-5.5q-5-3-9.5-8t-7-8-5.5-6.5-4-4-4 1.5q-14 16 7 43.5t39 31.5q9 1 14.5-8t3.5-20zm-178-213q0-11-5-19.5t-11-12.5-9-3q-6 0-8 2t0 4 5 3q14 4 18 31 0 3 8-2 2-2 2-3zm54-233q0-2-2.5-5t-9-7-9.5-6q-15-15-24-15-9 1-11.5 7.5t-1 13-.5 12.5q-1 4-6 10.5t-6 9 3 8.5q4 3 8 0t11-9 15-9q1-1 9-1t15-2 9-7zm565 1341q20 12 31 24.5t12 24-2.5 22.5-15.5 22-23.5 19.5-30 18.5-31.5 16.5-32 15.5-27 13q-38 19-85.5 56t-75.5 64q-17 16-68 19.5t-89-14.5q-18-9-29.5-23.5t-16.5-25.5-22-19.5-47-9.5q-44-1-130-1-19 0-57 1.5t-58 2.5q-44 1-79.5 15t-53.5 30-43.5 28.5-53.5 11.5q-29-1-111-31t-146-43q-19-4-51-9.5t-50-9-39.5-9.5-33.5-14.5-17-19.5q-10-23 7-66.5t18-54.5q1-16-4-40t-10-42.5-4.5-36.5 10.5-27q14-12 57-14t60-12q30-18 42-35t12-51q21 73-32 106-32 20-83 15-34-3-43 10-13 15 5 57 2 6 8 18t8.5 18 4.5 17 1 22q0 15-17 49t-14 48q3 17 37 26 20 6 84.5 18.5t99.5 20.5q24 6 74 22t82.5 23 55.5 4q43-6 64.5-28t23-48-7.5-58.5-19-52-20-36.5q-121-190-169-242-68-74-113-40-11 9-15-15-3-16-2-38 1-29 10-52t24-47 22-42q8-21 26.5-72t29.5-78 30-61 39-54q110-143 124-195-12-112-16-310-2-90 24-151.5t106-104.5q39-21 104-21 53-1 106 13.5t89 41.5q57 42 91.5 121.5t29.5 147.5q-5 95 30 214 34 113 133 218 55 59 99.5 163t59.5 191q8 49 5 84.5t-12 55.5-20 22q-10 2-23.5 19t-27 35.5-40.5 33.5-61 14q-18-1-31.5-5t-22.5-13.5-13.5-15.5-11.5-20.5-9-19.5q-22-37-41-30t-28 49 7 97q20 70 1 195-10 65 18 100.5t73 33 85-35.5q59-49 89.5-66.5t103.5-42.5q53-18 77-36.5t18.5-34.5-25-28.5-51.5-23.5q-33-11-49.5-48t-15-72.5 15.5-47.5q1 31 8 56.5t14.5 40.5 20.5 28.5 21 19 21.5 13 16.5 9.5z"/>
</symbol>

<!--
chart
-->
<symbol id="chart" viewBox="0 0 64 64">
<path d="M11,17v43h49V17H11z M59,59H12V27h47V59z M59,26H12v-8h47V26z"/>
<path d="M36,7v4h14V7H36z M49,10H37V8h12V10z"/>
<path d="M19,7v4h4V7H19z M22,10h-2V8h2V10z"/>
<path d="M13,7v4h4V7H13z M16,10h-2V8h2V10z"/>
<path d="M7,7v4h4V7H7z M10,10H8V8h2V10z"/>
<path d="M43,20v4h14v-4H43z M56,23H44v-2h12V23z"/>
<path d="M26,20v4h4v-4H26z M29,23h-2v-2h2V23z"/>
<path d="M20,20v4h4v-4H20z M23,23h-2v-2h2V23z"/>
<path d="M14,20v4h4v-4H14z M17,23h-2v-2h2V23z"/>
<path d="M53.866,33.062l0.732-1.24L54,29.5l-2.322,0.598l-0.732,1.24l1.637-0.422l-6.258,10.598     C45.972,41.198,45.51,41,45,41c-0.413,0-0.797,0.126-1.116,0.341l-3.362-4.059C40.816,36.934,41,36.49,41,36c0-1.103-0.897-2-2-2     s-2,0.897-2,2c0,0.495,0.187,0.942,0.486,1.292l-5.074,8.752C32.279,46.016,32.141,46,32,46c-0.413,0-0.797,0.126-1.117,0.341     l-3.961-2.82C26.968,43.354,27,43.182,27,43c0-1.103-0.897-2-2-2s-2,0.897-2,2c0,0.273,0.056,0.534,0.155,0.771l-5.649,8.301     C17.344,52.03,17.176,52,17,52c-1.103,0-2,0.897-2,2s0.897,2,2,2s2-0.897,2-2c0-0.565-0.238-1.074-0.617-1.438l5.422-7.967     C24.14,44.846,24.55,45,25,45c0.559,0,1.064-0.232,1.427-0.603l3.797,2.703C30.085,47.371,30,47.674,30,48c0,1.103,0.897,2,2,2     s2-0.897,2-2c0-0.602-0.273-1.137-0.695-1.503l5.002-8.627C38.524,37.95,38.755,38,39,38c0.25,0,0.487-0.051,0.708-0.136     l3.513,4.242C43.084,42.376,43,42.677,43,43c0,1.103,0.897,2,2,2s2-0.897,2-2c0-0.184-0.033-0.358-0.08-0.528l6.524-11.048     L53.866,33.062z M17,55c-0.551,0-1-0.449-1-1s0.449-1,1-1s1,0.449,1,1S17.551,55,17,55z M25,44c-0.551,0-1-0.449-1-1s0.449-1,1-1     s1,0.449,1,1S25.551,44,25,44z M32,49c-0.551,0-1-0.449-1-1s0.449-1,1-1s1,0.449,1,1S32.551,49,32,49z M38,36     c0-0.551,0.449-1,1-1s1,0.449,1,1s-0.449,1-1,1S38,36.551,38,36z M45,44c-0.551,0-1-0.449-1-1s0.449-1,1-1s1,0.449,1,1     S45.551,44,45,44z"/>
<path d="M10,46H5V14h47v2h1V4H4v43h6V46z M5,5h47v8H5V5z"/>
</symbol>

</svg>
